<?xml version="1.0" encoding="utf-8"?>
<!-- Generator: Adobe Illustrator 15.0.0, SVG Export Plug-In . SVG Version: 6.00 Build 0)  -->
<!DOCTYPE svg PUBLIC "-//W3C//DTD SVG 1.1//EN" "http://www.w3.org/Graphics/SVG/1.1/DTD/svg11.dtd">
<svg version="1.1"
	 id="svg2" inkscape:version="0.45.1" sodipodi:version="0.32" sodipodi:docbase="D:\DougsDocs\Wikipedia" sodipodi:docname="Human body silhouette.svg" inkscape:output_extension="org.inkscape.output.svg.inkscape" xmlns:inkscape="http://www.inkscape.org/namespaces/inkscape" xmlns:sodipodi="http://sodipodi.sourceforge.net/DTD/sodipodi-0.dtd" xmlns:rdf="http://www.w3.org/1999/02/22-rdf-syntax-ns#" xmlns:svg="http://www.w3.org/2000/svg" xmlns:cc="http://web.resource.org/cc/" xmlns:dc="http://purl.org/dc/elements/1.1/"
	 xmlns="http://www.w3.org/2000/svg" xmlns:xlink="http://www.w3.org/1999/xlink" x="0px" y="0px" width="970px" height="2200px"
	 viewBox="0 0 970 2200" enable-background="new 0 0 970 2200" xml:space="preserve">
<sodipodi:namedview  width="970px" height="2200px" bordercolor="#666666" pagecolor="#ffffff" id="base" inkscape:zoom="0.35" inkscape:window-x="-4" borderopacity="1.0" gridtolerance="10000" guidetolerance="10" objecttolerance="10" inkscape:pageopacity="0.0" inkscape:pageshadow="2" inkscape:cx="444.95671" inkscape:cy="1188.8382" inkscape:document-units="px" inkscape:current-layer="layer1" inkscape:window-width="748" inkscape:window-height="1113" inkscape:window-y="2">
	</sodipodi:namedview>
<g id="layer1" transform="translate(41.500029,630.92312)" inkscape:groupmode="layer" inkscape:label="Layer 1">
	<path id="path2180" fill="#CCCCCC" fill-opacity="0.375" d="M634.5,1566.401c-4.17-1.87-10.352-7.609-13.429-12.468
		c-1.219-1.925-3.024-6.425-4.012-10c-0.986-3.575-3.021-8.975-4.521-12c-3.51-7.08-6.661-26.548-8.012-49.5
		c-0.906-15.394-1.337-17.991-4.558-27.5c-1.956-5.774-4.185-13.2-4.951-16.5s-1.831-7.8-2.366-10
		c-0.536-2.2-1.291-8.274-1.678-13.5c-0.535-7.22-1.557-11.779-4.256-19c-1.952-5.225-3.868-12.425-4.256-16
		c-0.439-4.054-2.039-9.46-4.25-14.366c-5.018-11.14-5.474-16.996-2.15-27.634c4.759-15.229,4.418-37.486-1.107-72.5
		c-2.79-17.675-10.639-61.249-13.601-75.5c-4.164-20.034-5.412-24.591-15.789-57.658c-8.828-28.132-9.39-34.027-12.927-135.842
		l-0.869-25l-5.244-13.491c-2.884-7.421-6.833-16.646-8.775-20.5c-5.534-10.982-12.892-33.074-15.171-45.557
		c-1.456-7.971-2.084-15.588-2.097-25.417c-0.01-7.719-0.448-18.085-0.975-23.035c-0.527-4.95-1.444-16.875-2.04-26.5
		s-1.944-23.575-2.997-31c-2.44-17.207-13.429-70.411-20.964-101.5c-3.575-14.75-6.698-30.676-8.104-41.323
		c-1.259-9.527-2.765-17.952-3.346-18.721c-0.869-1.15-2.266-0.616-7.854,2.998c-5.479,3.544-8.002,4.524-13,5.053
		c-3.673,0.388-7.338,0.219-8.988-0.415c-2.108-0.81-2.874-0.769-3.149,0.17c-0.201,0.681-1.559,10.238-3.018,21.238
		c-1.458,11-4.189,26.976-6.068,35.5c-4.715,21.385-10.253,56.349-11.445,72.249c-0.546,7.288-1.655,17.751-2.464,23.251
		c-1.525,10.378-3.608,57.599-3.616,82c-0.007,21.569-1.306,31.072-6.354,46.5c-2.43,7.425-6.308,18-8.618,23.5
		c-2.312,5.5-5.502,14.617-7.092,20.261c-4.088,14.514-4.05,17.399,1.133,86.809c0.578,7.738,1.05,20.788,1.048,29
		c-0.004,20.891-1.697,30.75-14.071,81.931c-2.128,8.8-4.615,20.05-5.527,25s-2.559,13.275-3.658,18.5
		c-1.101,5.226-2.378,12.2-2.839,15.5c-0.462,3.3-1.749,10.95-2.861,17c-2.739,14.896-5.113,41.751-5.113,57.829
		c0,10.814,0.456,15.014,2.508,23.104c3.725,14.685,4.066,21.612,1.483,30.067c-7.676,25.123-9.029,32.647-9.98,55.5
		c-0.711,17.089-1.147,20.552-3.523,28c-1.492,4.675-3.735,10.525-4.986,13c-3.232,6.396-4.697,17.294-4.544,33.805
		c0.073,7.868-0.309,15.743-0.848,17.5c-0.539,1.758-2.161,7.879-3.604,13.603s-3.543,12.207-4.665,14.407
		c-1.123,2.2-2.701,6.292-3.508,9.093c-0.807,2.802-3.065,7.454-5.02,10.34c-3.021,4.463-4.308,5.472-8.613,6.75
		c-10.539,3.13-19.177,1.283-23.277-4.976c-2.309-3.523-1.528-14.44,1.448-20.271c1.711-3.349,1.866-4.25,0.736-4.25
		c-1.708,0-7.95,10.835-9.507,16.5c-0.604,2.2-1.437,4.5-1.85,5.11c-1.275,1.889-7.003,4.39-10.052,4.39
		c-4.136,0-9.514-3.923-10.655-7.771c-0.756-2.553-1.495-3.229-3.527-3.229c-3.508,0-6.955-2.61-8.579-6.497
		c-0.949-2.271-2.202-3.406-4.205-3.807c-3.373-0.674-5.231-4.093-5.231-9.621c0-2.353-0.641-4.359-1.662-5.202
		c-2.978-2.46-6.338-11.581-6.338-17.204c0-6.348,5.51-31.156,7.7-34.669c0.857-1.375,2.598-3.625,3.868-5
		c1.271-1.375,4.12-6.1,6.333-10.5c2.213-4.399,7.179-11.825,11.036-16.5c7.486-9.073,9.44-11.794,15.8-22
		c2.768-4.441,4.381-8.454,5.094-12.672c0.698-4.138,3.183-10.401,7.532-19c7.052-13.938,7.696-16.968,6.235-29.328
		c-0.781-6.608-0.407-8.625,5.92-31.968c2.24-8.263,1.847-15.866-2.461-47.532c-2.169-15.95-4.894-38.675-6.056-50.5
		c-1.161-11.825-2.972-29.149-4.024-38.5c-1.052-9.35-2.399-21.725-2.993-27.5c-0.595-5.774-2.699-21.975-4.677-36
		c-3.251-23.051-3.606-27.757-3.701-49c-0.103-22.768,0.137-26.152,4.479-63.5c1.349-11.603,3.246-23.142,7.071-43
		c3.007-15.614,3.061-16.397,2.213-32.5c-0.479-9.075-0.869-29.774-0.869-46c0-32.278,0.536-28.28-6.643-49.5
		c-3.533-10.444-7.704-33.65-11.907-66.261c-1.116-8.656-3.136-22.325-4.49-30.375s-2.461-16.164-2.461-18.031
		s-1.101-9.23-2.447-16.363c-1.346-7.134-3.373-19.72-4.505-27.97c-1.132-8.25-2.736-19.5-3.565-25
		c-6.116-40.586-14.602-124.901-13.05-129.667c0.239-0.732,0.681-16.183,0.983-34.333c0.957-57.464,4.161-86.997,11.672-107.58
		c6.163-16.886,8.122-33.046,8.415-69.42c0.196-24.299,0.332-25.281,8.639-62.5c5.952-26.669,7.25-40.325,7.315-77
		c0.045-25.583-1.189-42.945-4.551-64c-3.205-20.072-3.761-20.355-6.326-3.223c-1.529,10.214-10.424,47.019-17.212,71.223
		c-2.398,8.55-2.684,11.352-2.857,28c-0.106,10.175-0.696,20.525-1.312,23c-1.592,6.397-10.988,33.734-13.233,38.5
		c-3.263,6.925-9.645,22.666-12.772,31.5c-13.89,39.235-26.928,72.154-37.427,94.5c-13.847,29.472-20.412,45.926-33.714,84.5
		c-8.51,24.678-14.678,42.137-16.075,45.5c-0.457,1.101-1.065,4.025-1.352,6.5c-0.286,2.476-1.042,7.875-1.679,12
		c-0.687,4.45-0.874,10.55-0.459,15c1.652,17.73,1.919,14.976-5.003,51.5c-4.191,22.11-4.293,19.872,2.559,56
		c1.043,5.5,2.023,15.1,2.177,21.332c0.281,11.322,0.278,11.334-2.525,13.75c-1.561,1.345-4.081,2.418-5.678,2.418
		c-4.913,0-6.5-3.355-8.927-18.878c-1.2-7.674-3.055-17.006-4.123-20.737c-1.067-3.732-2.665-10.727-3.55-15.542
		c-1.946-10.591-3.607-12.596-6.955-8.397c-1.266,1.588-2.545,4.274-2.843,5.971c-0.298,1.696-0.822,15.685-1.165,31.084
		c-0.869,39.076-1.534,46.034-4.699,49.198c-2.969,2.969-8.486,3.364-12.279,0.879c-2.862-1.875-2.983-3.508-1.423-19.077
		c0.799-7.976,0.66-13.001-0.687-24.826c-1.396-12.253-1.487-16.158-0.521-22.5c1.378-9.055,1.496-15.174,0.292-15.174
		c-0.475,0-1.127,2.812-1.449,6.25c-0.323,3.438-1.074,10.525-1.669,15.75c-0.596,5.226-1.261,21.343-1.479,35.817
		c-0.324,21.507-0.678,26.746-1.934,28.663c-2.849,4.347-11.488,4.47-15.351,0.218c-1.781-1.96-2.09-4.313-2.856-21.698
		c-1.076-24.421-1.121-40.81-0.131-48.319c0.511-3.876,0.427-5.609-0.25-5.19c-0.56,0.345-1.017,1.925-1.017,3.51s-0.45,3.16-1,3.5
		c-0.618,0.382-1,9.021-1,22.591c0,23.349-0.692,27.604-4.85,29.829c-3.641,1.948-7.92,1.258-11.385-1.838L15,693.098l-0.616-22.333
		c-0.339-12.282-0.217-25.707,0.271-29.832c0.488-4.125,1.843-15.6,3.012-25.5c2.264-19.169,3.446-38.5,2.354-38.5
		c-0.684,0-10.742,8.634-17.856,15.329c-7.152,6.729-15.753,9.694-27.964,9.638c-8.216-0.038-11.701-1.942-11.701-6.394
		c0-2.061,0.785-2.939,3.75-4.203c10.081-4.296,12.25-5.423,12.25-6.366c0-0.562,4.806-5.852,10.679-11.754
		c5.874-5.901,12.656-13.435,15.073-16.74c7.761-10.614,8.525-11.51,9.825-11.51c0.703,0,2.227-1.206,3.386-2.681
		s4.065-4.062,6.458-5.75c10.818-7.636,26.522-21.796,29.18-26.311c4.605-7.825,6.398-12.005,6.418-14.96
		c0.017-2.546,1.469-8.509,7.013-28.799c1.052-3.85,2.826-10.349,3.943-14.442c1.117-4.093,2.713-11.376,3.547-16.184
		c0.834-4.809,3.049-12.976,4.922-18.151c5.441-15.03,8.284-28.86,16.079-78.223c5.385-34.098,8.275-50.727,10.951-63
		c1.319-6.05,3.814-19.1,5.545-29c2.953-16.895,8.593-38.992,13.145-51.5c1.101-3.024,3.718-10.45,5.815-16.5
		s5.161-13.925,6.807-17.5c8.604-18.682,12.032-32.808,15.172-62.5c1.163-11,3.221-29,4.573-40
		c6.836-55.631,6.972-57.559,6.702-95.5c-0.392-55.007,1.315-75.018,9.384-110c4.647-20.146,9.61-35.38,13.357-40.995
		c7.163-10.735,16.923-18.216,31.109-23.844c7.71-3.058,11.108-4.789,20.917-10.652c3.025-1.809,9.922-4.934,15.327-6.943
		c23.226-8.639,78.087-35.001,92.173-44.292c9.652-6.366,15.851-12.475,18.086-17.825c2.169-5.192,4.419-21.184,4.929-35.043
		c0.448-12.151,0.36-12.862-2.379-19.261c-6.048-14.131-9.339-25.761-12.586-44.476c-1.665-9.594-2.055-10.668-3.877-10.668
		c-0.665,0-2.942-1.178-5.061-2.617c-5.121-3.48-10.521-15.108-14.004-30.151c-2.989-12.912-3.205-17.842-1.132-25.801
		c1.561-5.992,2.598-7.759,6.34-10.798c2.001-1.625,2.224-2.445,1.634-6.007c-0.375-2.269-1.078-4.879-1.562-5.802
		c-0.484-0.922-1.369-7.447-1.967-14.5c-0.599-7.052-1.565-13.815-2.149-15.029c-0.754-1.564-0.738-5.058,0.053-12
		c0.713-6.262,0.766-9.914,0.146-10.126c-1.243-0.428-1.264-3.867-0.027-4.631c0.519-0.32,1.216-2.709,1.551-5.309
		c0.335-2.6,1.036-5.508,1.558-6.463c0.522-0.955,0.949-2.93,0.949-4.389c0-1.459,1.427-4.953,3.171-7.764
		c1.743-2.811,4.619-7.654,6.391-10.763c2.95-5.18,11.621-16.397,20.35-26.326c4.257-4.843,12.77-11.381,15.839-12.164
		c1.237-0.315,2.25-0.995,2.25-1.509c0-0.515,0.562-0.831,1.25-0.703s2.664-0.103,4.392-0.512c2.42-0.573,3.029-1.174,2.653-2.613
		c-0.41-1.57,0.282-1.984,4.342-2.593c2.656-0.398,6.32-1.347,8.141-2.108c1.821-0.761,3.761-1.105,4.311-0.765
		s1.629,0.096,2.397-0.542c0.77-0.638,3.562-1.228,6.206-1.311s5.129-0.611,5.521-1.174c0.47-0.674,2.393-0.427,5.635,0.724
		c5.786,2.055,8.828,2.223,9.396,0.52c0.304-0.914,1.047-0.812,2.892,0.398c2.347,1.537,6.175,1.56,9.865,0.058
		c0.825-0.335,2.85-0.72,4.5-0.855c1.65-0.135,4.526-0.559,6.392-0.943c2.33-0.479,3.183-0.359,2.724,0.385
		c-0.452,0.731,1.253,1.073,5.252,1.054c6.347-0.03,10.189,1.481,13.855,5.451c1.222,1.324,4.256,2.976,6.741,3.672
		c2.485,0.696,5.535,2.273,6.777,3.505s4.509,3.393,7.259,4.8c8.302,4.25,15.976,12.39,30.828,32.704
		c1.81,2.475,3.866,6.075,4.569,8c0.704,1.925,1.938,4.733,2.742,6.241c2.008,3.764,3.59,12.619,4.066,22.759
		c0.479,10.201,0.51,8.893-0.646,27.5c-1.175,18.931-2.565,29.338-4.736,35.451l-1.707,4.805l2.665,3.168
		c2.87,3.411,6.718,14.431,6.718,19.241c0,5.091-4.876,24.967-8.26,33.666c-2.033,5.228-4.513,9.604-6.657,11.75
		c-3.426,3.429-4.061,3.684-9.545,3.837l-2.961,0.082l-2.849,14c-4.19,20.603-4.437,21.725-5.484,25
		c-0.945,2.952-0.837,16.497,0.253,31.784c0.838,11.74,4.067,26.297,6.911,31.15c3.57,6.093,11.901,13.348,21.152,18.419
		c38.74,21.239,75.479,39.287,97.939,48.113c17.826,7.005,20.927,8.561,33.5,16.803c14.465,9.482,25.846,18.892,30.471,25.191
		c8.837,12.039,15.268,33.276,20.604,68.04c2.064,13.452,2.242,18.401,2.467,68.5c0.231,51.665,1.209,74.735,4.393,103.747
		c5.672,51.691,8.719,73.311,12.227,86.753c2.469,9.459,2.896,10.625,9.92,27c6.191,14.437,18.514,51.002,21.904,65
		c1.132,4.675,3.42,17.726,5.084,29c1.663,11.275,4.786,31.3,6.939,44.5c3.924,24.059,7.086,45.046,9.04,60
		c2.036,15.584,4.144,27.857,6.076,35.382c2.225,8.657,12.352,40.653,17.605,55.618c1.931,5.5,4.989,15.175,6.796,21.5
		c5.873,20.56,8.156,25.587,14.895,32.791c3.344,3.575,12.764,12.343,20.932,19.482c9.158,8.005,15.867,14.709,17.5,17.488
		c3.174,5.399,9.771,13.866,16.219,20.812c2.59,2.791,5.661,6.94,6.825,9.223c3.066,6.011,7.329,10.49,13.597,14.289
		c4.871,2.952,5.508,3.715,5.508,6.604c0,4.97-3.355,6.718-11.619,6.055c-10.164-0.816-18.832-5.619-30.131-16.694l-9.25-9.067
		v6.144c0,6.472,0.426,9.539,4.567,32.875c4.211,23.731,4.392,25.648,4.412,46.782c0.023,23.45-0.63,26.339-6.521,28.8
		c-3.302,1.379-3.93,1.354-7.286-0.286c-4.916-2.403-5.8-5.483-7.149-24.936c-1.675-24.111-2.315-28.342-5.641-37.229
		c-1.311-3.503-2.383-7.89-2.383-9.75c0-1.859-0.45-3.381-1-3.381c-1.488,0-1.211,6.398,0.577,13.297
		c2.001,7.726,2.327,27.059,0.673,39.914c-0.688,5.341-1.25,15.513-1.25,22.604c0,12.211-0.127,13.03-2.392,15.474
		c-3.126,3.373-9.019,4.523-12.51,2.442c-4.81-2.868-5.094-4.556-4.755-28.23c0.308-21.507-0.168-31.823-2.303-49.957
		c-1.736-14.742-3.184-12.931-2.422,3.03c0.447,9.364,0.299,15.169-0.446,17.475c-1.695,5.25-3.14,19.893-3.484,35.34
		c-0.298,13.317-0.41,13.969-2.737,15.854c-3.222,2.608-10.596,1.801-13.287-1.455c-1.738-2.103-1.807-4.483-1.269-44.673
		c0.553-41.277,0.352-45.113-2.367-45.113c-0.399,0-0.799,3.891-0.888,8.646s-0.899,11.393-1.803,14.75
		c-0.902,3.357-1.729,8.354-1.836,11.104c-0.328,8.377-1.644,20.792-2.612,24.657c-1.549,6.179-9.123,7.091-13.228,1.592
		c-2.729-3.655-3.297-15.469-1.524-31.749c1.744-16.017,1.748-35.952,0.008-42.747c-0.739-2.887-1.637-5.067-1.995-4.846
		c-0.357,0.221-0.745-1.805-0.861-4.5c-0.115-2.696-0.669-6.604-1.229-8.686c-3.508-13.025-4.989-27.41-4.776-46.377
		c0.206-18.367,0.104-19.558-2.033-23.555c-1.237-2.315-2.25-4.889-2.25-5.718c0-1.468-7.082-18.334-22.341-53.203
		c-4.122-9.423-9.962-23.598-12.977-31.5c-3.014-7.903-10.516-26.294-16.671-40.869c-13.971-33.083-16.61-39.924-28.551-74
		c-9.582-27.343-12.396-34.574-18.298-47c-3.446-7.257-13.133-33.778-15.156-41.5c-0.804-3.066-1.394-12.154-1.525-23.5
		c-0.192-16.567-0.491-19.492-2.866-28c-5.564-19.942-11.754-46.037-14.576-61.462c-2.43-13.276-6.039-40.868-6.039-46.167
		c0-0.754-0.396-1.371-0.881-1.371s-1.637,5.062-2.561,11.25s-3.183,19.351-5.02,29.25c-9.517,51.277-10.362,79.919-3.383,114.5
		c9.261,45.884,10.654,56.607,11.885,91.5c0.523,14.851,1.394,28.8,1.932,31c0.539,2.2,0.99,5.896,1.004,8.215
		c0.017,3.072,0.528,4.485,1.887,5.212c1.024,0.549,2.344,2.252,2.933,3.785c1.128,2.937,4.17,17.684,4.7,22.788
		c0.172,1.65,0.986,5.138,1.811,7.75c0.823,2.612,1.262,4.75,0.973,4.75c-0.288,0-0.031,0.595,0.572,1.321
		c0.603,0.727,1.066,2.639,1.031,4.25c-0.036,1.611,0.462,5.179,1.104,7.929c4.657,19.905,6.041,27.514,7.003,38.5
		c1.252,14.291,2.621,25.79,4.526,38c0.729,4.675,2.107,15.685,3.062,24.466c1.524,14.018,1.589,18.167,0.53,34
		c-1.769,26.468-6.781,79.153-9.659,101.534c-1.379,10.726-3.38,32.101-4.447,47.5c-2.273,32.832-10.264,109.842-12.509,120.564
		c-0.856,4.09-2.396,10.136-3.422,13.436c-5.722,18.411-8.132,55.601-6.158,95c1.115,22.257,2.018,27.328,9.422,53
		c4.528,15.699,11.199,49.484,13.13,66.5c2.695,23.751,1.938,62.869-1.975,102c-1.517,15.168-3.159,46.276-4.012,76
		c-0.276,9.625-0.957,23.8-1.513,31.5c-3.398,47.111-3.829,67.807-1.543,74.284c0.783,2.22,1.197,4.262,0.92,4.539
		s0.269,1.682,1.213,3.122c3.548,5.415,5.502,15.542,6.089,31.555l0.567,15.5l4.608,6c4.839,6.3,13.161,21.83,17.147,32
		c1.294,3.3,2.955,6.711,3.691,7.579c0.737,0.868,1.34,1.996,1.34,2.507s2.062,3.4,4.58,6.421
		c6.245,7.489,18.239,25.331,20.568,30.597c1.049,2.369,2.955,5.565,4.238,7.103c6.107,7.318,8.597,16.117,8.569,30.294
		c-0.019,9.386-0.309,11.084-2.738,16c-1.557,3.151-3.786,6.018-5.218,6.712c-2.737,1.326-3.698,4.184-3.882,11.538
		c-0.145,5.802-2.935,9.264-6.705,8.317c-2.271-0.569-2.413-0.352-2.413,3.691c0,6.058-2.146,8.741-6.99,8.741
		c-3.474,0-3.91,0.282-4.193,2.718c-0.739,6.351-14.283,10.012-19.367,5.234l-2.18-2.048l-0.588,2.936
		C657.026,1565.55,641.986,1569.759,634.5,1566.401z"/>
</g>
</svg>
